<svg width="160" height="179" viewBox="0 0 160 179" fill="none" xmlns="http://www.w3.org/2000/svg">
<mask id="path-1-outside-1_103_1701" maskUnits="userSpaceOnUse" x="0" y="0" width="160" height="179" fill="black">
<rect fill="white" width="160" height="179"/>
<path fill-rule="evenodd" clip-rule="evenodd" d="M155 146.125C152.947 146.271 150.874 146.345 148.785 146.345C100.875 146.345 62.0367 107.345 62.0367 59.2353C62.0367 37.8009 69.7461 18.1746 82.5324 3C37.5238 6.19973 2 43.879 2 89.8899C2 137.999 40.8383 177 88.7479 177C115.312 177 139.087 165.01 155 146.125Z"/>
</mask>
<path fill-rule="evenodd" clip-rule="evenodd" d="M155 146.125C152.947 146.271 150.874 146.345 148.785 146.345C100.875 146.345 62.0367 107.345 62.0367 59.2353C62.0367 37.8009 69.7461 18.1746 82.5324 3C37.5238 6.19973 2 43.879 2 89.8899C2 137.999 40.8383 177 88.7479 177C115.312 177 139.087 165.01 155 146.125Z" fill="url(#paint0_linear_103_1701)"/>
<path d="M155 146.125L156.529 147.414L159.579 143.795L154.858 144.13L155 146.125ZM82.5324 3L84.0618 4.28873L87.1115 0.669415L82.3906 1.00503L82.5324 3ZM154.858 144.13C152.852 144.273 150.827 144.345 148.785 144.345V148.345C150.922 148.345 153.042 148.27 155.142 148.12L154.858 144.13ZM148.785 144.345C101.987 144.345 64.0367 106.248 64.0367 59.2353H60.0367C60.0367 108.442 99.7626 148.345 148.785 148.345V144.345ZM64.0367 59.2353C64.0367 38.289 71.5686 19.1155 84.0618 4.28873L81.003 1.71127C67.9236 17.2337 60.0367 37.3127 60.0367 59.2353H64.0367ZM4 89.8899C4 44.929 38.7121 8.12031 82.6742 4.99497L82.3906 1.00503C36.3356 4.27916 0 42.829 0 89.8899H4ZM88.7479 175C41.9508 175 4 136.903 4 89.8899H0C0 139.096 39.7259 179 88.7479 179V175ZM153.471 144.837C137.921 163.291 114.696 175 88.7479 175V179C115.928 179 140.254 166.729 156.529 147.414L153.471 144.837Z" fill="url(#paint1_linear_103_1701)" mask="url(#path-1-outside-1_103_1701)"/>
<defs>
<linearGradient id="paint0_linear_103_1701" x1="94.5989" y1="58.469" x2="57.687" y2="176.913" gradientUnits="userSpaceOnUse">
<stop stop-color="white"/>
<stop offset="1" stop-color="#76766D"/>
</linearGradient>
<linearGradient id="paint1_linear_103_1701" x1="-5.37738" y1="-23.532" x2="130.033" y2="206.907" gradientUnits="userSpaceOnUse">
<stop stop-color="white"/>
<stop offset="1" stop-color="#76766D"/>
</linearGradient>
</defs>
</svg>
